<?xml version="1.0" standalone="no"?>
<!DOCTYPE svg PUBLIC "-//W3C//DTD SVG 20010904//EN"
 "http://www.w3.org/TR/2001/REC-SVG-20010904/DTD/svg10.dtd">
<svg version="1.0" xmlns="http://www.w3.org/2000/svg"
 width="72.000000pt" height="72.000000pt" viewBox="0 0 72.000000 72.000000"
 preserveAspectRatio="xMidYMid meet">
<metadata>
Created by potrace 1.11, written by Peter Selinger 2001-2013
</metadata>
<g transform="translate(0.000000,72.000000) scale(0.100000,-0.100000)"
fill="#000000" stroke="none">
<path d="M141 674 c-31 -39 -26 -62 24 -112 39 -39 44 -47 32 -60 -12 -12 -18
-10 -43 14 -46 42 -83 55 -115 38 -41 -21 -51 -61 -23 -88 22 -23 53 -20 63 7
7 16 5 25 -7 35 -18 14 -35 12 -30 -3 2 -6 6 -9 10 -8 5 2 8 -4 8 -13 0 -21
-34 -14 -38 9 -10 53 56 62 111 14 32 -29 37 -39 37 -77 1 -25 7 -62 14 -83
14 -37 13 -39 -9 -47 -25 -10 -51 -47 -40 -58 4 -4 11 1 16 10 6 10 19 23 30
29 18 9 27 4 68 -42 l47 -52 -18 -36 c-20 -38 -24 -81 -8 -81 6 0 10 7 10 15
0 9 7 31 15 51 l14 34 50 -27 c48 -26 50 -30 45 -60 -6 -34 2 -73 16 -73 5 0
7 15 4 33 -7 48 4 58 56 49 97 -17 170 31 170 111 0 23 -5 59 -11 81 -12 45
-3 56 49 56 17 0 32 5 32 10 0 13 -66 13 -89 0 -15 -7 -24 -1 -50 36 -38 52
-33 67 31 86 21 6 35 15 30 20 -12 12 -72 -8 -99 -34 -12 -12 -23 -17 -23 -12
0 6 -22 23 -50 39 -56 34 -62 55 -28 92 12 13 18 26 15 30 -11 10 -57 -38 -57
-60 0 -16 -5 -18 -32 -11 -54 12 -78 13 -107 4 -36 -10 -81 19 -108 67 -17 32
-17 33 4 54 12 13 28 19 37 16 17 -7 22 -37 6 -37 -5 0 -10 5 -10 10 0 6 -4
10 -10 10 -5 0 -10 -9 -10 -21 0 -16 5 -20 28 -17 52 6 35 78 -19 78 -10 0
-27 -12 -38 -26z"/>
</g>
</svg>
